<?xml version="1.0" encoding="utf-8"?>
<svg width="60" height="60" viewBox="0 0 60 60" fill="none" xmlns="http://www.w3.org/2000/svg">
  <path style="fill: rgb(216, 216, 216); stroke: rgb(0, 0, 0);" d="M 23.296 36.975 L 32.98 36.84 C 32.98 36.84 36.569 29.255 33.251 36.501 C 29.933 43.747 36.772 28.713 36.772 28.713 L 18.894 28.442 L 22.822 37.111"/>
  <path style="fill: rgb(216, 216, 216); stroke: rgb(0, 0, 0);" d="M 19.097 27.765 C 19.411 26.824 19.165 25.465 19.165 24.447 C 19.165 22.207 19.222 19.986 18.826 17.81 C 18.686 17.037 18.76 16.392 18.42 15.711 C 17.947 14.765 16.5 14.739 15.914 14.153 C 15.715 13.955 14.51 12.899 14.56 12.799 C 14.578 12.763 14.813 12.835 14.831 12.799 C 14.935 12.591 14.371 12.638 14.221 12.46 C 13.921 12.105 13.763 11.508 13.544 11.106 C 13.457 10.947 12.266 9.54 12.393 9.413 C 12.654 9.152 13.689 9.345 14.018 9.345 C 16.238 9.345 17.697 10.113 19.3 11.716 C 19.533 11.949 20.089 12.194 20.248 12.393 C 21.112 13.472 21.581 14.923 22.212 16.185 C 22.802 17.364 23.437 18.519 23.702 19.842 C 23.922 20.942 23.747 22.12 23.905 23.228 C 23.995 23.856 24.517 24.914 24.244 25.598 C 23.984 26.247 23.567 27.412 23.567 28.036 C 23.567 28.288 23.853 27.606 23.905 27.359 C 24.016 26.832 24.22 26.37 24.312 25.869 C 24.624 24.148 25.192 22.33 25.192 20.587 C 25.192 19.001 25.26 17.427 25.26 15.847 C 25.26 15.567 25.086 14.463 25.327 14.221 C 25.871 13.677 25.327 14.83 25.869 13.883 C 26.179 13.34 26.218 12.518 26.749 11.986 C 27.545 11.19 29.545 11.391 30.542 11.106 C 30.557 11.102 32.032 10.564 32.032 10.564 C 32.032 10.564 31.474 11.062 31.354 11.242 C 30.933 11.874 30.423 12.852 30.271 13.612 C 29.884 15.548 29.997 17.485 29.526 19.368 C 29.404 19.855 29.658 20.442 29.526 20.926 C 29.191 22.154 28.307 23.458 28.307 24.786 C 28.307 25.369 28.357 26.001 27.901 26.343 C 27.826 26.399 27.898 27.026 27.833 27.156 C 27.771 27.279 27.864 27.984 27.968 28.036 C 28.191 28.148 28.036 27.541 28.036 27.291 C 28.036 26.927 27.976 25.979 28.036 25.53 C 28.144 24.721 28.688 23.962 28.849 23.16 C 29.008 22.364 28.994 21.439 29.255 20.655 C 29.734 19.219 29.737 17.356 30 15.779 C 30.041 15.534 29.908 15.264 30 15.034 C 30.564 13.624 31.623 12.33 32.302 10.971 C 32.623 10.329 34.454 10.186 35.147 9.955 C 35.751 9.753 36.602 9.982 37.178 9.752 C 37.449 9.643 38.086 9.461 38.397 9.616 C 38.728 9.782 37.622 10.084 37.585 10.158 C 37.031 11.265 36.908 12.493 36.569 13.679 C 36.009 15.638 35.954 17.604 35.418 19.571 C 35.23 20.26 34.755 20.893 34.47 21.535 C 34.324 21.862 34.433 22.452 34.199 22.686 C 34.116 22.769 34.199 23.306 34.199 23.431 C 34.199 23.96 34.213 25.283 33.792 25.598 C 33.274 25.987 33.047 27.386 33.047 27.968 C 33.047 28.145 33.024 29.006 33.251 29.12 C 33.593 29.291 33.91 28.75 33.995 28.578 C 34.381 27.806 34.295 27.033 34.605 26.275 C 34.808 25.78 35.122 25.337 35.35 24.853 C 35.673 24.166 36.098 23.602 36.501 22.957 C 36.585 22.823 36.456 22.634 36.501 22.483 C 36.686 21.865 37.157 21.273 37.381 20.655 C 37.732 19.69 37.941 18.705 38.194 17.743 C 38.401 16.955 39.038 16.206 39.278 15.44 C 39.75 13.929 40.379 11.867 41.309 10.564 C 42.08 9.485 44.107 8.948 45.44 9.481 C 45.743 9.602 46.068 10.08 46.388 10.293 C 47.572 11.082 48.602 12.291 49.097 13.612 C 50.862 18.319 48.316 11.448 49.639 14.424 C 49.876 14.958 49.691 15.699 49.842 16.253 C 49.906 16.487 50.222 16.713 50.113 16.93 C 49.906 17.344 49.347 16.121 49.3 15.982 C 49.139 15.497 48.246 14.444 47.607 14.763 C 46.406 15.364 44.672 16.045 43.341 16.659 C 42.678 16.965 42.643 17.549 42.19 17.946 C 41.702 18.372 41.043 18.638 40.564 19.029 C 39.742 19.702 39.706 20.858 39.413 21.738 C 39.026 22.901 38.516 24.007 37.991 25.056 C 37.727 25.584 37.225 26.2 36.84 26.682 C 36.639 26.932 36.065 27.702 36.23 27.427 C 36.864 26.371 37.21 24.493 37.449 23.296 C 37.872 21.183 38.208 19.105 38.533 16.998 C 38.715 15.813 39.172 14.705 39.278 13.544 C 39.39 12.303 39.818 10.278 39.007 9.142 C 37.631 7.216 35.727 5.66 34.131 4.063 C 33.835 3.767 33.3 3.66 32.98 3.386 C 32.936 3.348 32.126 2.778 32.099 2.844 C 31.948 3.222 32.099 3.657 32.099 4.063 C 32.099 5.034 32.099 6.005 32.099 6.975 C 32.099 10.428 32.826 13.678 33.183 17.065 C 33.367 18.819 33.887 20.499 33.725 22.28 C 33.637 23.246 33.416 24.325 33.183 25.26 C 33.051 25.789 32.302 26.371 32.302 26.817 C 32.302 27.122 31.761 28.104 31.761 28.104 C 31.761 28.104 31.761 25.792 31.761 25.53 C 31.761 23.586 31.622 21.58 31.761 19.639 C 31.837 18.578 32.047 17.531 31.964 16.456 C 31.858 15.085 31.37 14.022 30.88 12.799 C 29.766 10.013 31.773 15.004 30.745 11.919 C 30.149 10.132 29.273 8.629 27.833 7.381 C 27.127 6.77 26.354 6.241 25.734 5.621 C 25.55 5.437 25.029 5.525 24.853 5.35 C 24.554 5.051 24.095 4.794 23.837 4.537 C 23.756 4.456 23.752 4.762 23.77 4.876 C 23.86 5.444 24.005 6.003 24.108 6.569 C 24.293 7.584 24.412 8.594 24.582 9.616 C 24.904 11.543 25.4 13.295 25.869 15.169 C 26.206 16.516 26.031 17.891 26.479 19.233 C 27.007 20.818 26.489 23.67 26.005 25.124 C 25.79 25.767 25.483 26.37 25.192 26.953 C 25.123 27.091 24.547 27.411 24.786 27.291 C 25.13 27.119 25.156 27.14 25.53 26.953 C 25.608 26.914 25.519 25.8 25.53 25.666 C 25.63 24.525 25.64 23.341 25.801 22.212 C 26.475 17.499 25.555 11.776 21.603 8.736 C 20.272 7.712 19.207 6.475 17.743 5.621 C 17.445 5.447 17.015 5.107 16.727 5.011 C 16.55 4.952 16.185 4.69 16.185 4.876 C 16.185 6.37 16.462 8.077 17.133 9.345 C 17.419 9.885 17.182 10.657 17.404 11.174 C 17.676 11.807 18.161 12.508 18.352 13.273 C 18.426 13.568 18.302 13.922 18.352 14.221 C 18.581 15.592 19.359 16.875 19.707 18.217 C 19.969 19.23 20.133 20.283 20.519 21.264 C 20.667 21.64 20.897 21.979 21.061 22.348 C 21.436 23.192 22.285 25.187 21.467 26.005 C 20.937 26.535 21.698 27.156 20.587 27.156"/>
  <path style="fill: rgb(216, 216, 216); stroke: rgb(0, 0, 0);" d="M 37.652 26.682 C 36.535 26.682 36.373 27.011 35.688 27.833 C 35.562 27.985 35.011 28.449 35.011 28.578"/>
  <path style="fill: rgb(216, 216, 216); stroke: rgb(0, 0, 0);" d="M 30.339 28.442 C 30.339 27.959 30.653 28.23 30.677 27.968 C 30.901 25.512 30.542 23.094 30 20.722 C 29.379 18.006 29.862 15.162 29.052 12.46 C 28.748 11.447 28.037 10.572 27.494 9.684 C 27.275 9.326 27.22 9.018 27.02 8.668 C 26.957 8.557 26.757 8.27 26.749 8.397 C 26.551 11.779 26.715 15.171 26.546 18.555 C 26.467 20.15 26.022 21.712 25.869 23.296 C 25.762 24.402 25.598 25.517 25.598 26.614 C 25.598 26.828 25.558 27.562 25.869 27.562"/>
  <path style="fill: rgb(216, 216, 216); stroke: rgb(0, 0, 0);" d="M 21.196 28.036 C 21.196 24.84 20.72 21.191 21.67 18.149 C 21.98 17.158 22.569 16.117 22.754 15.102 C 22.843 14.609 22.854 14.446 23.16 14.018 C 23.256 13.884 23.247 13.387 23.296 13.544 C 23.937 15.628 24.04 17.875 24.718 19.91 C 25.005 20.772 24.579 22.028 24.65 22.957 C 24.762 24.415 25.463 25.804 25.463 27.223"/>
  <path style="fill: rgb(216, 216, 216); stroke: rgb(0, 0, 0);" d="M 27.562 26.14 C 27.73 25.804 27.63 24.964 27.63 24.718 C 27.63 23.391 27.568 22.11 27.427 20.79 C 27.36 20.165 27.243 19.569 27.156 18.962 C 27.136 18.82 27.051 18.695 27.02 18.555 C 27.001 18.467 27.02 18.194 27.02 18.284 C 27.02 19.096 27.316 19.739 27.359 20.519 C 27.372 20.746 27.389 20.973 27.427 21.196 C 27.45 21.337 27.542 21.744 27.562 21.603 C 27.71 20.568 27.765 20.343 27.765 19.503 C 27.765 19.473 27.986 18.274 28.104 18.352 C 28.6 18.683 28.728 20.081 28.849 20.587 C 29.028 21.339 28.99 22.233 29.187 22.957 C 29.606 24.491 30.068 26.012 30.068 27.562"/>
  <path style="fill: rgb(216, 216, 216); stroke: rgb(0, 0, 0);" d="M 19.842 28.849 C 19.526 28.849 19.21 28.849 18.894 28.849 C 18.637 28.849 18.558 28.984 18.284 28.984"/>
</svg>